<svg width="371" height="236" viewBox="0 0 371 236" fill="none" xmlns="http://www.w3.org/2000/svg">
<g filter="url(#filter0_dddddd_7576_554)">
<rect x="80" width="211" height="56" rx="12" fill="white"/>
<path d="M112.14 18.1363C112.092 18.4363 112.068 18.7363 112.068 19.0363C112.068 21.7363 114.252 23.919 116.94 23.919C117.24 23.919 117.528 23.8842 117.828 23.8362V33.5189C117.828 37.588 115.428 40 111.348 40H102.481C98.4 40 96 37.588 96 33.5189V24.6402C96 20.5603 98.4 18.1363 102.481 18.1363H112.14ZM112.381 25.4322C112.056 25.3962 111.733 25.5402 111.54 25.8042L108.637 29.5602L105.312 26.9442C105.108 26.7882 104.868 26.727 104.628 26.7522C104.389 26.7882 104.173 26.919 104.028 27.111L100.477 31.7321L100.404 31.8401C100.2 32.2229 100.296 32.7149 100.656 32.9801C100.824 33.0881 101.004 33.1601 101.208 33.1601C101.485 33.1721 101.748 33.0269 101.916 32.8001L104.928 28.923L108.348 31.4921L108.456 31.5629C108.84 31.7669 109.32 31.6721 109.596 31.3109L113.064 26.8362L113.016 26.8602C113.208 26.5962 113.244 26.2602 113.112 25.9602C112.981 25.6602 112.692 25.4562 112.381 25.4322ZM117.108 16C118.704 16 120 17.296 120 18.892C120 20.4879 118.704 21.7839 117.108 21.7839C115.512 21.7839 114.216 20.4879 114.216 18.892C114.216 17.296 115.512 16 117.108 16Z" fill="#1E1E1E"/>
<path d="M137.004 33.5V23.3182H138.849V27.6286H143.567V23.3182H145.416V33.5H143.567V29.1747H138.849V33.5H137.004ZM150.674 33.6491C149.928 33.6491 149.282 33.4851 148.735 33.157C148.188 32.8288 147.764 32.3698 147.462 31.7798C147.164 31.1899 147.015 30.5005 147.015 29.7116C147.015 28.9228 147.164 28.2318 147.462 27.6385C147.764 27.0452 148.188 26.5845 148.735 26.2564C149.282 25.9283 149.928 25.7642 150.674 25.7642C151.419 25.7642 152.066 25.9283 152.613 26.2564C153.159 26.5845 153.582 27.0452 153.88 27.6385C154.182 28.2318 154.333 28.9228 154.333 29.7116C154.333 30.5005 154.182 31.1899 153.88 31.7798C153.582 32.3698 153.159 32.8288 152.613 33.157C152.066 33.4851 151.419 33.6491 150.674 33.6491ZM150.684 32.2074C151.088 32.2074 151.426 32.0964 151.698 31.8743C151.97 31.6489 152.172 31.3473 152.304 30.9695C152.44 30.5916 152.508 30.1707 152.508 29.7067C152.508 29.2393 152.44 28.8168 152.304 28.4389C152.172 28.0578 151.97 27.7545 151.698 27.5291C151.426 27.3037 151.088 27.1911 150.684 27.1911C150.269 27.1911 149.925 27.3037 149.65 27.5291C149.378 27.7545 149.174 28.0578 149.038 28.4389C148.905 28.8168 148.839 29.2393 148.839 29.7067C148.839 30.1707 148.905 30.5916 149.038 30.9695C149.174 31.3473 149.378 31.6489 149.65 31.8743C149.925 32.0964 150.269 32.2074 150.684 32.2074ZM157.218 33.5L155.06 25.8636H156.894L158.237 31.233H158.306L159.678 25.8636H161.493L162.865 31.2031H162.94L164.262 25.8636H166.102L163.939 33.5H162.065L160.633 28.3395H160.529L159.097 33.5H157.218ZM170.831 33.5V25.8636H172.551V27.1612H172.641C172.8 26.7237 173.063 26.3823 173.431 26.1371C173.799 25.8885 174.238 25.7642 174.749 25.7642C175.266 25.7642 175.701 25.8902 176.056 26.142C176.414 26.3906 176.666 26.7304 176.812 27.1612H176.891C177.06 26.737 177.345 26.3989 177.746 26.147C178.151 25.8918 178.63 25.7642 179.183 25.7642C179.886 25.7642 180.459 25.9863 180.903 26.4304C181.348 26.8745 181.57 27.5225 181.57 28.3743V33.5H179.765V28.6527C179.765 28.1787 179.639 27.8324 179.387 27.6136C179.135 27.3916 178.827 27.2805 178.462 27.2805C178.028 27.2805 177.688 27.4164 177.443 27.6882C177.201 27.9567 177.08 28.3063 177.08 28.7372V33.5H175.315V28.5781C175.315 28.1837 175.196 27.8688 174.957 27.6335C174.722 27.3982 174.414 27.2805 174.033 27.2805C173.774 27.2805 173.539 27.3468 173.327 27.4794C173.115 27.6087 172.946 27.7926 172.82 28.0312C172.694 28.2666 172.631 28.5417 172.631 28.8565V33.5H170.831ZM185.593 33.6541C185.109 33.6541 184.673 33.5679 184.285 33.3956C183.901 33.2199 183.596 32.9614 183.371 32.62C183.148 32.2786 183.037 31.8577 183.037 31.3572C183.037 30.9264 183.117 30.5701 183.276 30.2884C183.435 30.0066 183.652 29.7812 183.927 29.6122C184.202 29.4432 184.512 29.3156 184.857 29.2294C185.205 29.1399 185.565 29.0753 185.936 29.0355C186.383 28.9891 186.746 28.9477 187.025 28.9112C187.303 28.8714 187.505 28.8118 187.631 28.7322C187.76 28.6494 187.825 28.5218 187.825 28.3494V28.3196C187.825 27.9451 187.714 27.6551 187.492 27.4496C187.27 27.2441 186.95 27.1413 186.532 27.1413C186.092 27.1413 185.742 27.2375 185.483 27.4297C185.228 27.6219 185.056 27.849 184.966 28.1108L183.286 27.8722C183.419 27.4081 183.637 27.0204 183.942 26.7088C184.247 26.3939 184.62 26.1586 185.061 26.0028C185.502 25.8438 185.989 25.7642 186.523 25.7642C186.89 25.7642 187.257 25.8073 187.621 25.8935C187.986 25.9796 188.319 26.1222 188.621 26.321C188.922 26.5166 189.164 26.7834 189.346 27.1214C189.532 27.4595 189.625 27.8821 189.625 28.3892V33.5H187.895V32.451H187.835C187.726 32.6631 187.572 32.862 187.373 33.0476C187.177 33.2299 186.93 33.3774 186.632 33.4901C186.337 33.5994 185.991 33.6541 185.593 33.6541ZM186.06 32.3317C186.421 32.3317 186.735 32.2604 187 32.1179C187.265 31.9721 187.469 31.7798 187.611 31.5412C187.757 31.3026 187.83 31.0424 187.83 30.7607V29.8608C187.774 29.9072 187.678 29.9503 187.542 29.9901C187.409 30.0298 187.26 30.0646 187.094 30.0945C186.929 30.1243 186.765 30.1508 186.602 30.174C186.44 30.1972 186.299 30.2171 186.18 30.2337C185.911 30.2701 185.671 30.3298 185.459 30.4126C185.247 30.4955 185.079 30.6115 184.956 30.7607C184.834 30.9065 184.773 31.0954 184.773 31.3274C184.773 31.6589 184.894 31.9091 185.135 32.0781C185.377 32.2472 185.686 32.3317 186.06 32.3317ZM192.28 36.3636C192.034 36.3636 191.807 36.3438 191.599 36.304C191.393 36.2675 191.229 36.2244 191.106 36.1747L191.524 34.7727C191.786 34.849 192.019 34.8854 192.225 34.8821C192.43 34.8788 192.611 34.8142 192.767 34.6882C192.926 34.5656 193.06 34.3601 193.17 34.0717L193.324 33.6591L190.555 25.8636H192.464L194.224 31.6307H194.303L196.068 25.8636H197.982L194.925 34.4247C194.782 34.8291 194.593 35.1754 194.358 35.4638C194.122 35.7554 193.834 35.9775 193.493 36.13C193.155 36.2857 192.75 36.3636 192.28 36.3636ZM204.624 23.3182V33.5H202.78V23.3182H204.624ZM211.814 29.0256V33.5H210.015V23.3182H211.775V27.1612H211.864C212.043 26.7304 212.32 26.3906 212.694 26.142C213.072 25.8902 213.553 25.7642 214.136 25.7642C214.666 25.7642 215.129 25.8752 215.523 26.0973C215.917 26.3194 216.222 26.6442 216.438 27.0717C216.657 27.4993 216.766 28.0213 216.766 28.6378V33.5H214.966V28.9162C214.966 28.4025 214.834 28.0031 214.569 27.718C214.307 27.4297 213.939 27.2855 213.465 27.2855C213.147 27.2855 212.862 27.3551 212.61 27.4943C212.361 27.6302 212.166 27.8274 212.023 28.0859C211.884 28.3445 211.814 28.6577 211.814 29.0256ZM221.981 33.6491C221.216 33.6491 220.554 33.4901 219.998 33.1719C219.444 32.8504 219.018 32.3963 218.72 31.8097C218.422 31.2197 218.272 30.5253 218.272 29.7266C218.272 28.9411 218.422 28.2517 218.72 27.6584C219.021 27.0618 219.442 26.5978 219.983 26.2663C220.523 25.9316 221.158 25.7642 221.887 25.7642C222.357 25.7642 222.801 25.8404 223.219 25.9929C223.64 26.142 224.011 26.3741 224.333 26.6889C224.658 27.0038 224.913 27.4048 225.098 27.892C225.284 28.3759 225.377 28.9527 225.377 29.6222V30.174H219.118V28.9609H223.652C223.648 28.6162 223.574 28.3097 223.428 28.0412C223.282 27.7694 223.078 27.5556 222.816 27.3999C222.558 27.2441 222.256 27.1662 221.912 27.1662C221.544 27.1662 221.221 27.2557 220.942 27.4347C220.664 27.6103 220.447 27.8423 220.291 28.1307C220.138 28.4157 220.06 28.7289 220.057 29.0703V30.1293C220.057 30.5734 220.138 30.9545 220.301 31.2727C220.463 31.5876 220.69 31.8295 220.982 31.9986C221.274 32.1643 221.615 32.2472 222.006 32.2472C222.268 32.2472 222.505 32.2107 222.717 32.1378C222.929 32.0616 223.113 31.9505 223.269 31.8047C223.425 31.6589 223.542 31.4782 223.622 31.2628L225.302 31.4517C225.196 31.8958 224.994 32.2836 224.696 32.6151C224.401 32.9432 224.023 33.1984 223.562 33.3807C223.101 33.5597 222.574 33.6491 221.981 33.6491ZM228.699 23.3182V33.5H226.899V23.3182H228.699ZM230.55 36.3636V25.8636H232.32V27.1264H232.424C232.517 26.9408 232.648 26.7436 232.817 26.5348C232.986 26.3227 233.214 26.142 233.503 25.9929C233.791 25.8404 234.159 25.7642 234.607 25.7642C235.196 25.7642 235.728 25.915 236.202 26.2166C236.68 26.5149 237.058 26.9574 237.336 27.544C237.618 28.1274 237.759 28.8433 237.759 29.6918C237.759 30.5303 237.621 31.2429 237.346 31.8295C237.071 32.4162 236.696 32.8636 236.222 33.1719C235.748 33.4801 235.211 33.6342 234.612 33.6342C234.174 33.6342 233.811 33.5613 233.523 33.4155C233.234 33.2696 233.002 33.094 232.827 32.8885C232.654 32.6797 232.52 32.4825 232.424 32.2969H232.349V36.3636H230.55ZM232.315 29.6818C232.315 30.1757 232.384 30.6082 232.523 30.9794C232.666 31.3506 232.87 31.6406 233.135 31.8494C233.403 32.0549 233.728 32.1577 234.109 32.1577C234.507 32.1577 234.84 32.0516 235.109 31.8395C235.377 31.6241 235.579 31.3307 235.715 30.9595C235.854 30.585 235.924 30.1591 235.924 29.6818C235.924 29.2079 235.856 28.7869 235.72 28.419C235.584 28.0511 235.382 27.7628 235.114 27.554C234.845 27.3452 234.51 27.2408 234.109 27.2408C233.725 27.2408 233.398 27.3419 233.13 27.544C232.862 27.7462 232.658 28.0296 232.518 28.3942C232.383 28.7588 232.315 29.188 232.315 29.6818ZM243.891 36.3636C243.646 36.3636 243.419 36.3438 243.21 36.304C243.004 36.2675 242.84 36.2244 242.718 36.1747L243.135 34.7727C243.397 34.849 243.631 34.8854 243.836 34.8821C244.042 34.8788 244.222 34.8142 244.378 34.6882C244.537 34.5656 244.672 34.3601 244.781 34.0717L244.935 33.6591L242.166 25.8636H244.075L245.835 31.6307H245.914L247.679 25.8636H249.593L246.536 34.4247C246.393 34.8291 246.204 35.1754 245.969 35.4638C245.734 35.7554 245.445 35.9775 245.104 36.13C244.766 36.2857 244.362 36.3636 243.891 36.3636ZM253.91 33.6491C253.164 33.6491 252.518 33.4851 251.971 33.157C251.424 32.8288 251 32.3698 250.698 31.7798C250.4 31.1899 250.251 30.5005 250.251 29.7116C250.251 28.9228 250.4 28.2318 250.698 27.6385C251 27.0452 251.424 26.5845 251.971 26.2564C252.518 25.9283 253.164 25.7642 253.91 25.7642C254.656 25.7642 255.302 25.9283 255.849 26.2564C256.396 26.5845 256.818 27.0452 257.117 27.6385C257.418 28.2318 257.569 28.9228 257.569 29.7116C257.569 30.5005 257.418 31.1899 257.117 31.7798C256.818 32.3698 256.396 32.8288 255.849 33.157C255.302 33.4851 254.656 33.6491 253.91 33.6491ZM253.92 32.2074C254.324 32.2074 254.662 32.0964 254.934 31.8743C255.206 31.6489 255.408 31.3473 255.541 30.9695C255.677 30.5916 255.744 30.1707 255.744 29.7067C255.744 29.2393 255.677 28.8168 255.541 28.4389C255.408 28.0578 255.206 27.7545 254.934 27.5291C254.662 27.3037 254.324 27.1911 253.92 27.1911C253.506 27.1911 253.161 27.3037 252.886 27.5291C252.614 27.7545 252.41 28.0578 252.274 28.4389C252.142 28.8168 252.075 29.2393 252.075 29.7067C252.075 30.1707 252.142 30.5916 252.274 30.9695C252.41 31.3473 252.614 31.6489 252.886 31.8743C253.161 32.0964 253.506 32.2074 253.92 32.2074ZM263.964 30.2884V25.8636H265.763V33.5H264.018V32.1428H263.939C263.767 32.5703 263.483 32.92 263.089 33.1918C262.698 33.4635 262.215 33.5994 261.642 33.5994C261.142 33.5994 260.699 33.4884 260.315 33.2663C259.933 33.041 259.635 32.7145 259.42 32.2869C259.204 31.8561 259.097 31.3357 259.097 30.7259V25.8636H260.896V30.4474C260.896 30.9313 261.029 31.3158 261.294 31.6009C261.559 31.8859 261.907 32.0284 262.338 32.0284C262.603 32.0284 262.86 31.9638 263.109 31.8345C263.357 31.7053 263.561 31.513 263.72 31.2578C263.883 30.9993 263.964 30.6761 263.964 30.2884ZM269.334 30.5071V30.3778C269.338 29.7779 269.394 29.3007 269.503 28.946C269.616 28.5914 269.775 28.3063 269.981 28.0909C270.186 27.8722 270.436 27.6716 270.731 27.4893C270.934 27.3634 271.114 27.2259 271.273 27.0767C271.436 26.9242 271.563 26.7552 271.656 26.5696C271.749 26.3807 271.795 26.1702 271.795 25.9382C271.795 25.6764 271.734 25.4493 271.611 25.2571C271.489 25.0649 271.323 24.9157 271.114 24.8097C270.909 24.7036 270.678 24.6506 270.423 24.6506C270.188 24.6506 269.964 24.7019 269.752 24.8047C269.543 24.9041 269.369 25.0566 269.23 25.2621C269.094 25.4643 269.018 25.7211 269.001 26.0327H267.231C267.248 25.4029 267.4 24.8759 267.689 24.4517C267.98 24.0275 268.365 23.7093 268.842 23.4972C269.323 23.285 269.853 23.179 270.433 23.179C271.066 23.179 271.623 23.29 272.104 23.5121C272.587 23.7341 272.964 24.0507 273.232 24.4616C273.504 24.8693 273.64 25.3532 273.64 25.9134C273.64 26.2912 273.578 26.6293 273.456 26.9276C273.336 27.2259 273.166 27.491 272.944 27.723C272.722 27.955 272.458 28.1622 272.153 28.3445C271.885 28.5102 271.664 28.6825 271.492 28.8615C271.323 29.0405 271.197 29.2509 271.114 29.4929C271.035 29.7315 270.993 30.0265 270.99 30.3778V30.5071H269.334ZM270.199 33.6094C269.901 33.6094 269.644 33.5033 269.429 33.2912C269.213 33.0791 269.106 32.8205 269.106 32.5156C269.106 32.2173 269.213 31.9621 269.429 31.75C269.644 31.5379 269.901 31.4318 270.199 31.4318C270.494 31.4318 270.75 31.5379 270.965 31.75C271.184 31.9621 271.293 32.2173 271.293 32.5156C271.293 32.7178 271.242 32.9018 271.139 33.0675C271.04 33.2332 270.907 33.3658 270.741 33.4652C270.579 33.5613 270.398 33.6094 270.199 33.6094Z" fill="#444444"/>
</g>
<defs>
<filter id="filter0_dddddd_7576_554" x="0" y="0" width="371" height="236" filterUnits="userSpaceOnUse" color-interpolation-filters="sRGB">
<feFlood flood-opacity="0" result="BackgroundImageFix"/>
<feColorMatrix in="SourceAlpha" type="matrix" values="0 0 0 0 0 0 0 0 0 0 0 0 0 0 0 0 0 0 127 0" result="hardAlpha"/>
<feOffset dy="2.76726"/>
<feGaussianBlur stdDeviation="1.1069"/>
<feColorMatrix type="matrix" values="0 0 0 0 0 0 0 0 0 0 0 0 0 0 0 0 0 0 0.0196802 0"/>
<feBlend mode="normal" in2="BackgroundImageFix" result="effect1_dropShadow_7576_554"/>
<feColorMatrix in="SourceAlpha" type="matrix" values="0 0 0 0 0 0 0 0 0 0 0 0 0 0 0 0 0 0 127 0" result="hardAlpha"/>
<feOffset dy="6.6501"/>
<feGaussianBlur stdDeviation="2.66004"/>
<feColorMatrix type="matrix" values="0 0 0 0 0 0 0 0 0 0 0 0 0 0 0 0 0 0 0.0282725 0"/>
<feBlend mode="normal" in2="effect1_dropShadow_7576_554" result="effect2_dropShadow_7576_554"/>
<feColorMatrix in="SourceAlpha" type="matrix" values="0 0 0 0 0 0 0 0 0 0 0 0 0 0 0 0 0 0 127 0" result="hardAlpha"/>
<feOffset dy="12.5216"/>
<feGaussianBlur stdDeviation="5.00862"/>
<feColorMatrix type="matrix" values="0 0 0 0 0 0 0 0 0 0 0 0 0 0 0 0 0 0 0.035 0"/>
<feBlend mode="normal" in2="effect2_dropShadow_7576_554" result="effect3_dropShadow_7576_554"/>
<feColorMatrix in="SourceAlpha" type="matrix" values="0 0 0 0 0 0 0 0 0 0 0 0 0 0 0 0 0 0 127 0" result="hardAlpha"/>
<feOffset dy="22.3363"/>
<feGaussianBlur stdDeviation="8.93452"/>
<feColorMatrix type="matrix" values="0 0 0 0 0 0 0 0 0 0 0 0 0 0 0 0 0 0 0.0417275 0"/>
<feBlend mode="normal" in2="effect3_dropShadow_7576_554" result="effect4_dropShadow_7576_554"/>
<feColorMatrix in="SourceAlpha" type="matrix" values="0 0 0 0 0 0 0 0 0 0 0 0 0 0 0 0 0 0 127 0" result="hardAlpha"/>
<feOffset dy="41.7776"/>
<feGaussianBlur stdDeviation="16.711"/>
<feColorMatrix type="matrix" values="0 0 0 0 0 0 0 0 0 0 0 0 0 0 0 0 0 0 0.0503198 0"/>
<feBlend mode="normal" in2="effect4_dropShadow_7576_554" result="effect5_dropShadow_7576_554"/>
<feColorMatrix in="SourceAlpha" type="matrix" values="0 0 0 0 0 0 0 0 0 0 0 0 0 0 0 0 0 0 127 0" result="hardAlpha"/>
<feOffset dy="100"/>
<feGaussianBlur stdDeviation="40"/>
<feColorMatrix type="matrix" values="0 0 0 0 0 0 0 0 0 0 0 0 0 0 0 0 0 0 0.07 0"/>
<feBlend mode="normal" in2="effect5_dropShadow_7576_554" result="effect6_dropShadow_7576_554"/>
<feBlend mode="normal" in="SourceGraphic" in2="effect6_dropShadow_7576_554" result="shape"/>
</filter>
</defs>
</svg>
